<?xml version="1.0" encoding="UTF-8" standalone="no"?>
<svg
   xmlns:dc="http://purl.org/dc/elements/1.1/"
   xmlns:cc="http://creativecommons.org/ns#"
   xmlns:rdf="http://www.w3.org/1999/02/22-rdf-syntax-ns#"
   xmlns="http://www.w3.org/2000/svg"
   xmlns:xlink="http://www.w3.org/1999/xlink"
   xmlns:sodipodi="http://sodipodi.sourceforge.net/DTD/sodipodi-0.dtd"
   xmlns:inkscape="http://www.inkscape.org/namespaces/inkscape"
   height="100%"
   style="fill-rule:evenodd;clip-rule:evenodd;stroke-linejoin:round;stroke-miterlimit:1.41421;"
   version="1.1"
   viewBox="0 0 110 110"
   width="100%"
   xml:space="preserve"
   id="svg2"
   inkscape:version="0.91 r13725"
   sodipodi:docname="omnisync-error.svg"><metadata
     id="metadata11"><rdf:RDF><cc:Work
         rdf:about=""><dc:format>image/svg+xml</dc:format><dc:type
           rdf:resource="http://purl.org/dc/dcmitype/StillImage" /><dc:title /></cc:Work></rdf:RDF></metadata><defs
     id="defs9"><symbol
       id="Extract"><title
         id="title3461">Extract</title><desc
         id="desc3463">Removal of one or more specific sets of times from a set. (ISO)</desc><path
         d="m 35,115 40,-70 40,70 z"
         style="stroke-width:2"
         id="path3465" /></symbol><symbol
       id="Connector"><title
         id="title3510">Connector</title><desc
         id="desc3512">Exit to or entry from another part of chart.</desc><circle
         cx="75"
         cy="75"
         r="20"
         style="stroke-width:2"
         id="circle3514" /></symbol><symbol
       id="MagneticTape"><title
         id="title3431">Magnetic Tape</title><desc
         id="desc3433">Magnetic tape storage</desc><circle
         cx="75"
         cy="75"
         r="40"
         style="stroke-width:2"
         id="circle3435" /><path
         d="m 75,115 40,0"
         style="stroke-width:2"
         id="path3437" /></symbol><symbol
       id="NoEntry"><title
         id="title5152">No Entry</title><circle
         cx="36"
         cy="36"
         r="27"
         style="stroke:none"
         id="circle5154" /><rect
         x="14"
         y="32"
         width="44"
         height="8"
         style="fill:white;stroke:none"
         id="rect5156" /></symbol><symbol
       id="FirstAid"><title
         id="title6055">First Aid</title><path
         d="m 44,13 0,15 15,0 0,16 -15,0 0,15 -16,0 0,-15 -15,0 0,-16 15,0 0,-15 z"
         style="stroke:none"
         id="path6057" /></symbol><symbol
       id="NoSmoking"><title
         id="title5052">No Smoking</title><rect
         x="18"
         y="37"
         height="5"
         width="30"
         style="stroke:none"
         id="rect5054" /><rect
         x="49"
         y="37"
         width="1.5"
         height="5"
         style="stroke:none"
         id="rect5056" /><rect
         x="51.5"
         y="37"
         width="1.5"
         height="5"
         style="stroke:none"
         id="rect5058" /><path
         d="m 49.75,35.75 0,-3.125 a 2.1875,2.1875 0 0 0 -2.1875,-2.1875 l -5.625,0 A 3.125,3.125 0 0 1 39.25,25.75 a 4.0625,4.0625 0 1 1 0,-8.125"
         style="fill:none;stroke-width:1.5"
         id="path5060" /><path
         d="m 52.25,35.75 0,-3.75 a 5.625,5.625 0 0 0 -5.5,-5.625 l -3.125,0 A 4.0625,4.0625 0 0 0 40.5,19.5"
         style="fill:none;stroke-width:1.5"
         id="path5062" /><path
         d="m 18,18 36,36"
         style="fill:none;stroke:white;stroke-width:6.25"
         id="path5064" /><path
         d="m 18,18 36,36"
         style="fill:none;stroke-width:6.25"
         id="path5066" /><circle
         cx="36"
         cy="36"
         r="24"
         style="fill:none;stroke-width:6"
         id="circle5068" /></symbol></defs><sodipodi:namedview
     pagecolor="#ffffff"
     bordercolor="#666666"
     borderopacity="1"
     objecttolerance="10"
     gridtolerance="10"
     guidetolerance="10"
     inkscape:pageopacity="0"
     inkscape:pageshadow="2"
     inkscape:window-width="1920"
     inkscape:window-height="1015"
     id="namedview7"
     showgrid="false"
     inkscape:zoom="6.17"
     inkscape:cx="43.543759"
     inkscape:cy="55.225068"
     inkscape:window-x="0"
     inkscape:window-y="0"
     inkscape:window-maximized="1"
     inkscape:current-layer="svg2" /><circle
     cx="55"
     cy="55"
     id="circle4695"
     r="55"
     style="fill:rgb(37,183,211);" /><path
     d="M60.3915,16.0559C46.2583,16.0559 31.6034,26.8041 30.2149,40.572C17.0776,38.5985 5.82316,48.8015 5.82316,61.5296C5.82316,73.2497 15.3241,82.7506 27.0442,82.7506L84.6442,82.7506C94.6893,82.7506 102.834,74.6063 102.834,64.5612C102.834,54.3523 95.2547,46.3806 90.7073,46.3806C91.5204,39.0656 88.7507,32.2403 84.0136,26.9151L84.0225,26.9062C83.5505,26.3758 83.0517,25.8663 82.5421,25.3668C82.3645,25.1928 82.1853,25.0218 82.0033,24.8517C81.4298,24.3153 80.8379,23.7959 80.2241,23.3004C80.0417,23.1533 79.8561,23.0115 79.6704,22.8682C79.028,22.3718 78.372,21.8934 77.6928,21.4441C77.5343,21.3394 77.3706,21.2442 77.2102,21.1422C76.5486,20.7205 75.873,20.3178 75.1823,19.9432C75.0729,19.8839 74.9666,19.8206 74.8566,19.7626C74.8422,19.755 74.8267,19.7494 74.8122,19.7418C74.0566,19.3442 73.2841,18.9818 72.5,18.6435C72.3399,18.5745 72.1817,18.5027 72.0204,18.4363C71.2336,18.1114 70.4344,17.8218 69.6254,17.5599C69.4439,17.5013 69.2631,17.4436 69.0806,17.3882C68.2552,17.1372 67.4208,16.9187 66.579,16.7369C66.3375,16.6848 66.0962,16.6351 65.8537,16.5889C65.6161,16.5435 65.3787,16.4982 65.1402,16.4586C64.8352,16.408 64.5286,16.3665 64.2224,16.3254C64.0074,16.2965 63.7925,16.2666 63.577,16.2425C63.2303,16.2037 62.8827,16.1741 62.5349,16.1477C62.3503,16.1338 62.1661,16.1138 61.9813,16.1033C61.4517,16.0735 60.922,16.056 60.3915,16.056L60.3915,16.0559Z"
     id="path4699"
     style="fill:white;fill-opacity:0.937255;fill-rule:nonzero;" /><g
     id="g11092"
     transform="matrix(1.4040711,0,0,1.4040717,-38.238889,20.188483)"><use
       transform="translate(-26.053485,-32.747164)"
       height="100%"
       width="100%"
       y="0"
       x="0"
       xlink:href="#Connector"
       style="fill:#ff0000;stroke:#000000"
       id="use8483" /><text
       transform="scale(1.1067395,0.903555)"
       sodipodi:linespacing="125%"
       id="text11088"
       y="63.218788"
       x="29.307293"
       style="font-style:normal;font-weight:normal;font-size:48.92253113px;line-height:125%;font-family:sans-serif;letter-spacing:0px;word-spacing:0px;fill:#000000;fill-opacity:1;stroke:none;stroke-width:1px;stroke-linecap:butt;stroke-linejoin:miter;stroke-opacity:1"
       xml:space="preserve"><tspan
         style="font-style:normal;font-variant:normal;font-weight:normal;font-stretch:normal;font-family:ABeeZee;-inkscape-font-specification:ABeeZee"
         y="63.218788"
         x="29.307293"
         id="tspan11090"
         sodipodi:role="line">X</tspan></text>
</g></svg>